<mxfile host="app.diagrams.net" modified="2024-03-12T06:39:42.460Z" agent="Mozilla/5.0 (Windows NT 10.0; Win64; x64) AppleWebKit/537.36 (KHTML, like Gecko) Chrome/122.0.0.0 Safari/537.36" etag="_jbSJkr4yqEpNkvsX6sT" version="24.0.2" type="device">
  <diagram name="Strona-1" id="Qd8y2vSoyegrcLIjv-Hn">
    <mxGraphModel dx="1105" dy="594" grid="1" gridSize="10" guides="1" tooltips="1" connect="1" arrows="1" fold="1" page="1" pageScale="1" pageWidth="827" pageHeight="1169" math="0" shadow="0">
      <root>
        <mxCell id="0" />
        <mxCell id="1" parent="0" />
        <mxCell id="vgHROxliGc_WonnTzX8_-1" value="" style="ellipse;whiteSpace=wrap;html=1;aspect=fixed;" vertex="1" parent="1">
          <mxGeometry x="220" y="120" width="50" height="50" as="geometry" />
        </mxCell>
        <mxCell id="vgHROxliGc_WonnTzX8_-2" value="Turn On" style="endArrow=classic;html=1;rounded=0;exitX=0.5;exitY=1;exitDx=0;exitDy=0;entryX=0.5;entryY=0;entryDx=0;entryDy=0;" edge="1" parent="1" source="vgHROxliGc_WonnTzX8_-1" target="vgHROxliGc_WonnTzX8_-5">
          <mxGeometry relative="1" as="geometry">
            <mxPoint x="360" y="290" as="sourcePoint" />
            <mxPoint x="400" y="145" as="targetPoint" />
          </mxGeometry>
        </mxCell>
        <mxCell id="vgHROxliGc_WonnTzX8_-5" value="Display Welcome" style="rounded=1;whiteSpace=wrap;html=1;" vertex="1" parent="1">
          <mxGeometry x="185" y="270" width="120" height="60" as="geometry" />
        </mxCell>
        <mxCell id="vgHROxliGc_WonnTzX8_-6" value="" style="endArrow=classic;html=1;rounded=0;exitX=0.5;exitY=1;exitDx=0;exitDy=0;" edge="1" parent="1">
          <mxGeometry relative="1" as="geometry">
            <mxPoint x="246" y="330" as="sourcePoint" />
            <mxPoint x="246" y="440" as="targetPoint" />
          </mxGeometry>
        </mxCell>
        <mxCell id="vgHROxliGc_WonnTzX8_-7" value="Select &quot;Make Coffee&quot;" style="edgeLabel;resizable=0;html=1;;align=center;verticalAlign=middle;" connectable="0" vertex="1" parent="vgHROxliGc_WonnTzX8_-6">
          <mxGeometry relative="1" as="geometry" />
        </mxCell>
        <mxCell id="vgHROxliGc_WonnTzX8_-10" value="Display Menu" style="rounded=1;whiteSpace=wrap;html=1;" vertex="1" parent="1">
          <mxGeometry x="185" y="440" width="120" height="60" as="geometry" />
        </mxCell>
        <mxCell id="vgHROxliGc_WonnTzX8_-11" value="" style="endArrow=classic;html=1;rounded=0;exitX=1;exitY=0.5;exitDx=0;exitDy=0;entryX=1;entryY=0.5;entryDx=0;entryDy=0;" edge="1" parent="1" source="vgHROxliGc_WonnTzX8_-10" target="vgHROxliGc_WonnTzX8_-5">
          <mxGeometry width="50" height="50" relative="1" as="geometry">
            <mxPoint x="390" y="400" as="sourcePoint" />
            <mxPoint x="440" y="350" as="targetPoint" />
            <Array as="points">
              <mxPoint x="430" y="470" />
              <mxPoint x="430" y="300" />
            </Array>
          </mxGeometry>
        </mxCell>
        <mxCell id="vgHROxliGc_WonnTzX8_-12" value="Come Back" style="text;html=1;align=center;verticalAlign=middle;whiteSpace=wrap;rounded=0;" vertex="1" parent="1">
          <mxGeometry x="380" y="360" width="100" height="30" as="geometry" />
        </mxCell>
        <mxCell id="vgHROxliGc_WonnTzX8_-13" value="" style="endArrow=classic;html=1;rounded=0;exitX=0.5;exitY=1;exitDx=0;exitDy=0;" edge="1" parent="1" source="vgHROxliGc_WonnTzX8_-10">
          <mxGeometry relative="1" as="geometry">
            <mxPoint x="360" y="510" as="sourcePoint" />
            <mxPoint x="245" y="640" as="targetPoint" />
          </mxGeometry>
        </mxCell>
        <mxCell id="vgHROxliGc_WonnTzX8_-14" value="Choose Beverage" style="edgeLabel;resizable=0;html=1;;align=center;verticalAlign=middle;" connectable="0" vertex="1" parent="vgHROxliGc_WonnTzX8_-13">
          <mxGeometry relative="1" as="geometry" />
        </mxCell>
        <mxCell id="vgHROxliGc_WonnTzX8_-16" value="Start Brewing" style="rounded=1;whiteSpace=wrap;html=1;" vertex="1" parent="1">
          <mxGeometry x="185" y="640" width="120" height="60" as="geometry" />
        </mxCell>
        <mxCell id="vgHROxliGc_WonnTzX8_-17" value="" style="endArrow=classic;html=1;rounded=0;exitX=1;exitY=0.5;exitDx=0;exitDy=0;entryX=1;entryY=1;entryDx=0;entryDy=0;" edge="1" parent="1" source="vgHROxliGc_WonnTzX8_-16" target="vgHROxliGc_WonnTzX8_-10">
          <mxGeometry relative="1" as="geometry">
            <mxPoint x="360" y="510" as="sourcePoint" />
            <mxPoint x="460" y="510" as="targetPoint" />
            <Array as="points">
              <mxPoint x="460" y="670" />
              <mxPoint x="460" y="500" />
            </Array>
          </mxGeometry>
        </mxCell>
        <mxCell id="vgHROxliGc_WonnTzX8_-18" value="Stop" style="edgeLabel;resizable=0;html=1;;align=center;verticalAlign=middle;" connectable="0" vertex="1" parent="vgHROxliGc_WonnTzX8_-17">
          <mxGeometry relative="1" as="geometry" />
        </mxCell>
        <mxCell id="vgHROxliGc_WonnTzX8_-19" value="" style="endArrow=none;html=1;rounded=0;entryX=0.5;entryY=1;entryDx=0;entryDy=0;" edge="1" parent="1" target="vgHROxliGc_WonnTzX8_-16">
          <mxGeometry width="50" height="50" relative="1" as="geometry">
            <mxPoint x="245" y="760" as="sourcePoint" />
            <mxPoint x="440" y="720" as="targetPoint" />
          </mxGeometry>
        </mxCell>
        <mxCell id="vgHROxliGc_WonnTzX8_-20" value="has all ingredients?" style="rhombus;whiteSpace=wrap;html=1;" vertex="1" parent="1">
          <mxGeometry x="205" y="760" width="80" height="80" as="geometry" />
        </mxCell>
        <mxCell id="vgHROxliGc_WonnTzX8_-21" value="" style="endArrow=classic;html=1;rounded=0;exitX=1;exitY=0.5;exitDx=0;exitDy=0;" edge="1" parent="1" source="vgHROxliGc_WonnTzX8_-20">
          <mxGeometry relative="1" as="geometry">
            <mxPoint x="360" y="790" as="sourcePoint" />
            <mxPoint x="470" y="800" as="targetPoint" />
          </mxGeometry>
        </mxCell>
        <mxCell id="vgHROxliGc_WonnTzX8_-22" value="No" style="edgeLabel;resizable=0;html=1;;align=center;verticalAlign=middle;" connectable="0" vertex="1" parent="vgHROxliGc_WonnTzX8_-21">
          <mxGeometry relative="1" as="geometry" />
        </mxCell>
        <mxCell id="vgHROxliGc_WonnTzX8_-24" value="Display &quot;Fill ingredients&quot;" style="rounded=1;whiteSpace=wrap;html=1;" vertex="1" parent="1">
          <mxGeometry x="470" y="770" width="160" height="60" as="geometry" />
        </mxCell>
        <mxCell id="vgHROxliGc_WonnTzX8_-25" value="" style="endArrow=classic;html=1;rounded=0;exitX=0.5;exitY=0;exitDx=0;exitDy=0;entryX=1;entryY=1;entryDx=0;entryDy=0;" edge="1" parent="1" source="vgHROxliGc_WonnTzX8_-24" target="vgHROxliGc_WonnTzX8_-16">
          <mxGeometry width="50" height="50" relative="1" as="geometry">
            <mxPoint x="390" y="630" as="sourcePoint" />
            <mxPoint x="440" y="580" as="targetPoint" />
            <Array as="points">
              <mxPoint x="550" y="700" />
            </Array>
          </mxGeometry>
        </mxCell>
        <mxCell id="vgHROxliGc_WonnTzX8_-26" value="" style="endArrow=classic;html=1;rounded=0;exitX=0.5;exitY=1;exitDx=0;exitDy=0;" edge="1" parent="1" source="vgHROxliGc_WonnTzX8_-20">
          <mxGeometry relative="1" as="geometry">
            <mxPoint x="360" y="840" as="sourcePoint" />
            <mxPoint x="250" y="930" as="targetPoint" />
          </mxGeometry>
        </mxCell>
        <mxCell id="vgHROxliGc_WonnTzX8_-27" value="Grind Coffee, Heat water, Make Coffee" style="edgeLabel;resizable=0;html=1;;align=center;verticalAlign=middle;" connectable="0" vertex="1" parent="vgHROxliGc_WonnTzX8_-26">
          <mxGeometry relative="1" as="geometry" />
        </mxCell>
        <mxCell id="vgHROxliGc_WonnTzX8_-29" value="Dispense Coffee" style="rounded=1;whiteSpace=wrap;html=1;" vertex="1" parent="1">
          <mxGeometry x="185" y="930" width="120" height="60" as="geometry" />
        </mxCell>
        <mxCell id="vgHROxliGc_WonnTzX8_-32" value="" style="endArrow=classic;html=1;rounded=0;exitX=1;exitY=0.5;exitDx=0;exitDy=0;entryX=1;entryY=0.25;entryDx=0;entryDy=0;" edge="1" parent="1" source="vgHROxliGc_WonnTzX8_-29" target="vgHROxliGc_WonnTzX8_-5">
          <mxGeometry width="50" height="50" relative="1" as="geometry">
            <mxPoint x="390" y="850" as="sourcePoint" />
            <mxPoint x="720" y="280" as="targetPoint" />
            <Array as="points">
              <mxPoint x="720" y="960" />
              <mxPoint x="720" y="280" />
            </Array>
          </mxGeometry>
        </mxCell>
        <mxCell id="vgHROxliGc_WonnTzX8_-35" value="" style="endArrow=classic;html=1;rounded=0;exitX=0;exitY=0.5;exitDx=0;exitDy=0;" edge="1" parent="1" source="vgHROxliGc_WonnTzX8_-5">
          <mxGeometry relative="1" as="geometry">
            <mxPoint x="60" y="570" as="sourcePoint" />
            <mxPoint x="80" y="470" as="targetPoint" />
            <Array as="points">
              <mxPoint x="80" y="300" />
            </Array>
          </mxGeometry>
        </mxCell>
        <mxCell id="vgHROxliGc_WonnTzX8_-36" value="Select Turn Off" style="edgeLabel;resizable=0;html=1;;align=center;verticalAlign=middle;" connectable="0" vertex="1" parent="vgHROxliGc_WonnTzX8_-35">
          <mxGeometry relative="1" as="geometry" />
        </mxCell>
        <mxCell id="vgHROxliGc_WonnTzX8_-37" value="Clean Machine" style="rounded=1;whiteSpace=wrap;html=1;" vertex="1" parent="1">
          <mxGeometry x="30" y="440" width="120" height="60" as="geometry" />
        </mxCell>
        <mxCell id="vgHROxliGc_WonnTzX8_-41" value="" style="endArrow=classic;html=1;rounded=0;exitX=0.5;exitY=1;exitDx=0;exitDy=0;" edge="1" parent="1" source="vgHROxliGc_WonnTzX8_-37" target="vgHROxliGc_WonnTzX8_-43">
          <mxGeometry relative="1" as="geometry">
            <mxPoint x="50" y="470" as="sourcePoint" />
            <mxPoint x="90" y="600" as="targetPoint" />
          </mxGeometry>
        </mxCell>
        <mxCell id="vgHROxliGc_WonnTzX8_-43" value="Turn Off" style="rounded=1;whiteSpace=wrap;html=1;" vertex="1" parent="1">
          <mxGeometry x="30" y="600" width="120" height="60" as="geometry" />
        </mxCell>
      </root>
    </mxGraphModel>
  </diagram>
</mxfile>
